<svg width="280" height="60" viewBox="0 0 280 60" fill="none" xmlns="http://www.w3.org/2000/svg">
<path d="M0.726588 59.5L23.2949 0.5H279.273L256.705 59.5H0.726588Z" stroke="white"/>
<path d="M45.0531 24.8V36H42.4771V26.912H37.4211V36H34.8451V24.8H45.0531ZM51.6695 36.128C50.7628 36.128 49.9468 35.9413 49.2215 35.568C48.5068 35.184 47.9468 34.656 47.5415 33.984C47.1362 33.312 46.9335 32.5493 46.9335 31.696C46.9335 30.8427 47.1362 30.08 47.5415 29.408C47.9468 28.736 48.5068 28.2133 49.2215 27.84C49.9468 27.456 50.7628 27.264 51.6695 27.264C52.5762 27.264 53.3868 27.456 54.1015 27.84C54.8162 28.2133 55.3762 28.736 55.7815 29.408C56.1868 30.08 56.3895 30.8427 56.3895 31.696C56.3895 32.5493 56.1868 33.312 55.7815 33.984C55.3762 34.656 54.8162 35.184 54.1015 35.568C53.3868 35.9413 52.5762 36.128 51.6695 36.128ZM51.6695 34.08C52.3095 34.08 52.8322 33.8667 53.2375 33.44C53.6535 33.0027 53.8615 32.4213 53.8615 31.696C53.8615 30.9707 53.6535 30.3947 53.2375 29.968C52.8322 29.5307 52.3095 29.312 51.6695 29.312C51.0295 29.312 50.5015 29.5307 50.0855 29.968C49.6695 30.3947 49.4615 30.9707 49.4615 31.696C49.4615 32.4213 49.6695 33.0027 50.0855 33.44C50.5015 33.8667 51.0295 34.08 51.6695 34.08ZM66.2373 27.392V36H63.7413V29.44H61.0213L60.9413 30.96C60.8986 32.0907 60.7919 33.0293 60.6213 33.776C60.4506 34.5227 60.1733 35.1093 59.7893 35.536C59.4053 35.9627 58.8719 36.176 58.1893 36.176C57.8266 36.176 57.3946 36.112 56.8933 35.984L57.0213 33.936C57.1919 33.9573 57.3146 33.968 57.3893 33.968C57.7626 33.968 58.0399 33.8347 58.2213 33.568C58.4133 33.2907 58.5413 32.944 58.6053 32.528C58.6693 32.1013 58.7173 31.5413 58.7493 30.848L58.8773 27.392H66.2373ZM77.2615 27.392L73.3735 36.528C72.9788 37.52 72.4882 38.2187 71.9015 38.624C71.3255 39.0293 70.6268 39.232 69.8055 39.232C69.3575 39.232 68.9148 39.1627 68.4775 39.024C68.0402 38.8853 67.6828 38.6933 67.4055 38.448L68.3175 36.672C68.5095 36.8427 68.7282 36.976 68.9735 37.072C69.2295 37.168 69.4802 37.216 69.7255 37.216C70.0668 37.216 70.3442 37.1307 70.5575 36.96C70.7708 36.8 70.9628 36.528 71.1335 36.144L71.1655 36.064L67.4375 27.392H70.0135L72.4295 33.232L74.8615 27.392H77.2615ZM86.2096 27.392V36H83.7136V32.8C82.9883 33.1627 82.1883 33.344 81.3136 33.344C80.151 33.344 79.271 33.0827 78.6736 32.56C78.087 32.0267 77.7936 31.2053 77.7936 30.096V27.392H80.2896V29.936C80.2896 30.4587 80.423 30.8373 80.6896 31.072C80.967 31.3067 81.3616 31.424 81.8736 31.424C82.5243 31.424 83.1376 31.2853 83.7136 31.008V27.392H86.2096ZM88.6063 27.392H91.0863V32.512L95.2783 27.392H97.5663V36H95.0863V30.88L90.9103 36H88.6063V27.392ZM107.198 29.44H104.286V36H101.806V29.44H98.8936V27.392H107.198V29.44ZM113.184 30.144C114.304 30.1547 115.163 30.4107 115.76 30.912C116.357 31.4027 116.656 32.1013 116.656 33.008C116.656 33.9573 116.32 34.6987 115.648 35.232C114.987 35.7547 114.053 36.016 112.848 36.016L108.528 36V27.392H111.008V30.144H113.184ZM112.624 34.24C113.104 34.2507 113.472 34.1493 113.728 33.936C113.984 33.7227 114.112 33.4027 114.112 32.976C114.112 32.56 113.984 32.256 113.728 32.064C113.483 31.872 113.115 31.7707 112.624 31.76L111.008 31.744V34.24H112.624ZM126.539 32.736H125.243V36H122.747V27.392H125.243V30.736H126.587L128.923 27.392H131.579L128.571 31.52L131.787 36H128.843L126.539 32.736ZM136.779 36.128C135.872 36.128 135.056 35.9413 134.331 35.568C133.616 35.184 133.056 34.656 132.651 33.984C132.246 33.312 132.043 32.5493 132.043 31.696C132.043 30.8427 132.246 30.08 132.651 29.408C133.056 28.736 133.616 28.2133 134.331 27.84C135.056 27.456 135.872 27.264 136.779 27.264C137.686 27.264 138.496 27.456 139.211 27.84C139.926 28.2133 140.486 28.736 140.891 29.408C141.296 30.08 141.499 30.8427 141.499 31.696C141.499 32.5493 141.296 33.312 140.891 33.984C140.486 34.656 139.926 35.184 139.211 35.568C138.496 35.9413 137.686 36.128 136.779 36.128ZM136.779 34.08C137.419 34.08 137.942 33.8667 138.347 33.44C138.763 33.0027 138.971 32.4213 138.971 31.696C138.971 30.9707 138.763 30.3947 138.347 29.968C137.942 29.5307 137.419 29.312 136.779 29.312C136.139 29.312 135.611 29.5307 135.195 29.968C134.779 30.3947 134.571 30.9707 134.571 31.696C134.571 32.4213 134.779 33.0027 135.195 33.44C135.611 33.8667 136.139 34.08 136.779 34.08ZM143.216 27.392H145.696V30.752H149.44V27.392H151.936V36H149.44V32.784H145.696V36H143.216V27.392ZM158.421 36.128C157.504 36.128 156.677 35.9413 155.941 35.568C155.216 35.184 154.645 34.656 154.229 33.984C153.824 33.312 153.621 32.5493 153.621 31.696C153.621 30.8427 153.824 30.08 154.229 29.408C154.645 28.736 155.216 28.2133 155.941 27.84C156.677 27.456 157.504 27.264 158.421 27.264C159.328 27.264 160.117 27.456 160.789 27.84C161.472 28.2133 161.968 28.752 162.277 29.456L160.341 30.496C159.893 29.7067 159.248 29.312 158.405 29.312C157.754 29.312 157.216 29.5253 156.789 29.952C156.362 30.3787 156.149 30.96 156.149 31.696C156.149 32.432 156.362 33.0133 156.789 33.44C157.216 33.8667 157.754 34.08 158.405 34.08C159.258 34.08 159.904 33.6853 160.341 32.896L162.277 33.952C161.968 34.6347 161.472 35.168 160.789 35.552C160.117 35.936 159.328 36.128 158.421 36.128ZM172.293 27.392L168.405 36.528C168.01 37.52 167.519 38.2187 166.933 38.624C166.357 39.0293 165.658 39.232 164.837 39.232C164.389 39.232 163.946 39.1627 163.509 39.024C163.071 38.8853 162.714 38.6933 162.437 38.448L163.349 36.672C163.541 36.8427 163.759 36.976 164.005 37.072C164.261 37.168 164.511 37.216 164.757 37.216C165.098 37.216 165.375 37.1307 165.589 36.96C165.802 36.8 165.994 36.528 166.165 36.144L166.197 36.064L162.469 27.392H165.045L167.461 33.232L169.893 27.392H172.293ZM181.144 27.392V36H178.648V29.44H175.928L175.848 30.96C175.805 32.0907 175.698 33.0293 175.528 33.776C175.357 34.5227 175.08 35.1093 174.696 35.536C174.312 35.9627 173.778 36.176 173.096 36.176C172.733 36.176 172.301 36.112 171.8 35.984L171.928 33.936C172.098 33.9573 172.221 33.968 172.296 33.968C172.669 33.968 172.946 33.8347 173.128 33.568C173.32 33.2907 173.448 32.944 173.512 32.528C173.576 32.1013 173.624 31.5413 173.656 30.848L173.784 27.392H181.144ZM188.2 30.144C189.32 30.1547 190.178 30.4107 190.776 30.912C191.373 31.4027 191.672 32.1013 191.672 33.008C191.672 33.9573 191.336 34.6987 190.664 35.232C190.002 35.7547 189.069 36.016 187.864 36.016L183.544 36V27.392H186.024V30.144H188.2ZM187.64 34.24C188.12 34.2507 188.488 34.1493 188.744 33.936C189 33.7227 189.128 33.4027 189.128 32.976C189.128 32.56 189 32.256 188.744 32.064C188.498 31.872 188.13 31.7707 187.64 31.76L186.024 31.744V34.24H187.64ZM199.682 29.44H196.77V36H194.29V29.44H191.378V27.392H199.682V29.44ZM204.357 27.264C205.69 27.264 206.714 27.584 207.429 28.224C208.143 28.8533 208.501 29.808 208.501 31.088V36H206.165V34.928C205.695 35.728 204.821 36.128 203.541 36.128C202.879 36.128 202.303 36.016 201.812 35.792C201.333 35.568 200.965 35.2587 200.709 34.864C200.453 34.4693 200.325 34.0213 200.325 33.52C200.325 32.72 200.623 32.0907 201.221 31.632C201.829 31.1733 202.762 30.944 204.021 30.944H206.005C206.005 30.4 205.839 29.984 205.509 29.696C205.178 29.3973 204.682 29.248 204.021 29.248C203.562 29.248 203.109 29.3227 202.661 29.472C202.223 29.6107 201.85 29.8027 201.541 30.048L200.645 28.304C201.114 27.9733 201.674 27.7173 202.325 27.536C202.986 27.3547 203.663 27.264 204.357 27.264ZM204.165 34.448C204.591 34.448 204.97 34.352 205.301 34.16C205.631 33.9573 205.866 33.664 206.005 33.28V32.4H204.293C203.269 32.4 202.757 32.736 202.757 33.408C202.757 33.728 202.879 33.984 203.125 34.176C203.381 34.3573 203.727 34.448 204.165 34.448ZM220.365 33.952V37.888H218.045V36H210.669V27.392H213.149V33.952H216.621V27.392H219.117V33.952H220.365ZM221.934 27.392H224.414V32.512L228.606 27.392H230.894V36H228.414V30.88L224.238 36H221.934V27.392ZM241.438 27.264C242.312 27.264 243.096 27.456 243.79 27.84C244.483 28.2133 245.027 28.736 245.422 29.408C245.816 30.08 246.014 30.8427 246.014 31.696C246.014 32.5493 245.816 33.312 245.422 33.984C245.027 34.656 244.483 35.184 243.79 35.568C243.096 35.9413 242.312 36.128 241.438 36.128C240.68 36.128 239.987 35.9893 239.358 35.712C238.728 35.424 238.206 35.024 237.79 34.512C237.374 33.9893 237.096 33.392 236.958 32.72H235.774V36H233.294V27.392H235.774V30.56H236.974C237.219 29.5573 237.742 28.7573 238.542 28.16C239.342 27.5627 240.307 27.264 241.438 27.264ZM241.438 34.08C242.046 34.08 242.547 33.8667 242.942 33.44C243.347 33.0027 243.55 32.4213 243.55 31.696C243.55 30.96 243.347 30.3787 242.942 29.952C242.547 29.5253 242.046 29.312 241.438 29.312C240.819 29.312 240.307 29.5253 239.902 29.952C239.507 30.3787 239.31 30.96 239.31 31.696C239.31 32.4213 239.507 33.0027 239.902 33.44C240.307 33.8667 240.819 34.08 241.438 34.08Z" fill="white"/>
</svg>
