<svg width="41" height="40" viewBox="0 0 41 40" fill="none" xmlns="http://www.w3.org/2000/svg">
<path fill-rule="evenodd" clip-rule="evenodd" d="M2.90109 20C2.90109 20.3315 3.03278 20.6495 3.2672 20.8839C3.50163 21.1183 3.81957 21.25 4.15109 21.25L33.6336 21.25L25.7661 29.115C25.6499 29.2312 25.5577 29.3692 25.4948 29.521C25.4319 29.6729 25.3995 29.8356 25.3995 30C25.3995 30.1644 25.4319 30.3271 25.4948 30.479C25.5577 30.6308 25.6499 30.7688 25.7661 30.885C25.8823 31.0012 26.0203 31.0934 26.1721 31.1563C26.324 31.2192 26.4867 31.2516 26.6511 31.2516C26.8154 31.2516 26.9782 31.2192 27.13 31.1563C27.2819 31.0934 27.4199 31.0012 27.5361 30.885L37.5361 20.885C37.6525 20.7689 37.7449 20.631 37.8079 20.4791C37.8709 20.3272 37.9033 20.1644 37.9033 20C37.9033 19.8356 37.8709 19.6728 37.8079 19.5209C37.7449 19.3691 37.6525 19.2311 37.5361 19.115L27.5361 9.115C27.4199 8.99879 27.2819 8.90659 27.13 8.8437C26.9782 8.7808 26.8154 8.74843 26.6511 8.74843C26.4867 8.74843 26.324 8.7808 26.1721 8.8437C26.0203 8.90659 25.8823 8.99879 25.7661 9.115C25.6499 9.23122 25.5577 9.3692 25.4948 9.52105C25.4319 9.67289 25.3995 9.83565 25.3995 10C25.3995 10.1644 25.4319 10.3271 25.4948 10.479C25.5577 10.6308 25.6499 10.7688 25.7661 10.885L33.6336 18.75L4.15109 18.75C3.81957 18.75 3.50163 18.8817 3.2672 19.1161C3.03278 19.3505 2.90109 19.6685 2.90109 20Z" fill="#F7931E"/>
</svg>
