<svg width="290" height="68" viewBox="0 0 290 68" fill="none" xmlns="http://www.w3.org/2000/svg">
<path d="M22.9508 8H280L257.049 68H0L22.9508 8Z" fill="#F7931E"/>
<path d="M10.7266 59.5L33.2949 0.5H289.273L266.705 59.5H10.7266Z" stroke="white"/>
<path d="M44.8373 36V24.8H55.0453V36H52.4693V26.32L53.0613 26.912H46.8213L47.4133 26.32V36H44.8373ZM61.6617 36.128C60.7444 36.128 59.9284 35.936 59.2137 35.552C58.5097 35.168 57.9497 34.6453 57.5337 33.984C57.1284 33.312 56.9257 32.5493 56.9257 31.696C56.9257 30.832 57.1284 30.0693 57.5337 29.408C57.9497 28.736 58.5097 28.2133 59.2137 27.84C59.9284 27.456 60.7444 27.264 61.6617 27.264C62.5684 27.264 63.379 27.456 64.0937 27.84C64.8084 28.2133 65.3684 28.7307 65.7737 29.392C66.179 30.0533 66.3817 30.8213 66.3817 31.696C66.3817 32.5493 66.179 33.312 65.7737 33.984C65.3684 34.6453 64.8084 35.168 64.0937 35.552C63.379 35.936 62.5684 36.128 61.6617 36.128ZM61.6617 34.08C62.0777 34.08 62.451 33.984 62.7817 33.792C63.1124 33.6 63.3737 33.328 63.5657 32.976C63.7577 32.6133 63.8537 32.1867 63.8537 31.696C63.8537 31.1947 63.7577 30.768 63.5657 30.416C63.3737 30.064 63.1124 29.792 62.7817 29.6C62.451 29.408 62.0777 29.312 61.6617 29.312C61.2457 29.312 60.8724 29.408 60.5417 29.6C60.211 29.792 59.9444 30.064 59.7417 30.416C59.5497 30.768 59.4537 31.1947 59.4537 31.696C59.4537 32.1867 59.5497 32.6133 59.7417 32.976C59.9444 33.328 60.211 33.6 60.5417 33.792C60.8724 33.984 61.2457 34.08 61.6617 34.08ZM66.8854 35.984L67.0134 33.936C67.0774 33.9467 67.1414 33.9573 67.2054 33.968C67.2694 33.968 67.3281 33.968 67.3814 33.968C67.6801 33.968 67.9148 33.8827 68.0854 33.712C68.2561 33.5413 68.3841 33.312 68.4694 33.024C68.5548 32.7253 68.6134 32.3893 68.6454 32.016C68.6881 31.6427 68.7201 31.2533 68.7414 30.848L68.8694 27.392H76.2294V36H73.7334V28.832L74.2934 29.44H70.5174L71.0454 28.8L70.9334 30.96C70.9014 31.728 70.8374 32.432 70.7414 33.072C70.6561 33.712 70.5121 34.2667 70.3094 34.736C70.1068 35.1947 69.8348 35.552 69.4934 35.808C69.1521 36.0533 68.7148 36.176 68.1814 36.176C67.9894 36.176 67.7868 36.16 67.5734 36.128C67.3601 36.096 67.1308 36.048 66.8854 35.984ZM79.7977 39.232C79.3497 39.232 78.907 39.1627 78.4697 39.024C78.0324 38.8853 77.675 38.6933 77.3977 38.448L78.3097 36.672C78.5017 36.8427 78.7204 36.976 78.9657 37.072C79.2217 37.168 79.4724 37.216 79.7177 37.216C80.0697 37.216 80.347 37.1307 80.5497 36.96C80.763 36.8 80.955 36.528 81.1257 36.144L81.5737 35.088L81.7657 34.816L84.8537 27.392H87.2537L83.3657 36.528C83.0884 37.2213 82.7684 37.7653 82.4057 38.16C82.0537 38.5547 81.659 38.832 81.2217 38.992C80.795 39.152 80.3204 39.232 79.7977 39.232ZM81.2697 36.336L77.4297 27.392H80.0057L82.9817 34.592L81.2697 36.336ZM93.8818 32.704C93.5298 32.896 93.1405 33.0507 92.7138 33.168C92.2871 33.2853 91.8178 33.344 91.3058 33.344C90.1751 33.344 89.3058 33.088 88.6978 32.576C88.0898 32.0533 87.7858 31.2267 87.7858 30.096V27.392H90.2818V29.936C90.2818 30.4693 90.4205 30.8533 90.6978 31.088C90.9751 31.312 91.3645 31.424 91.8658 31.424C92.2285 31.424 92.5751 31.3813 92.9058 31.296C93.2471 31.2107 93.5725 31.088 93.8818 30.928V32.704ZM93.7058 36V27.392H96.2018V36H93.7058ZM98.5984 36V27.392H101.078V32.512L105.27 27.392H107.558V36H105.078V30.88L100.902 36H98.5984ZM111.798 36V28.864L112.358 29.44H108.886V27.392H117.19V29.44H113.718L114.278 28.864V36H111.798ZM123.176 30.144C124.307 30.1547 125.166 30.4107 125.752 30.912C126.35 31.4027 126.648 32.1013 126.648 33.008C126.648 33.9573 126.312 34.6987 125.64 35.232C124.968 35.7547 124.035 36.016 122.84 36.016L118.52 36V27.392H121V30.144H123.176ZM122.616 34.24C123.096 34.2507 123.464 34.1493 123.72 33.936C123.976 33.7227 124.104 33.4027 124.104 32.976C124.104 32.5493 123.976 32.2453 123.72 32.064C123.464 31.872 123.096 31.7707 122.616 31.76L121 31.744V34.24H122.616ZM138.835 36L135.955 31.92L137.987 30.72L141.779 36H138.835ZM132.739 36V27.392H135.235V36H132.739ZM134.499 32.736V30.736H137.507V32.736H134.499ZM138.227 31.984L135.891 31.728L138.915 27.392H141.571L138.227 31.984ZM146.771 36.128C145.854 36.128 145.038 35.936 144.323 35.552C143.619 35.168 143.059 34.6453 142.643 33.984C142.238 33.312 142.035 32.5493 142.035 31.696C142.035 30.832 142.238 30.0693 142.643 29.408C143.059 28.736 143.619 28.2133 144.323 27.84C145.038 27.456 145.854 27.264 146.771 27.264C147.678 27.264 148.488 27.456 149.203 27.84C149.918 28.2133 150.478 28.7307 150.883 29.392C151.288 30.0533 151.491 30.8213 151.491 31.696C151.491 32.5493 151.288 33.312 150.883 33.984C150.478 34.6453 149.918 35.168 149.203 35.552C148.488 35.936 147.678 36.128 146.771 36.128ZM146.771 34.08C147.187 34.08 147.56 33.984 147.891 33.792C148.222 33.6 148.483 33.328 148.675 32.976C148.867 32.6133 148.963 32.1867 148.963 31.696C148.963 31.1947 148.867 30.768 148.675 30.416C148.483 30.064 148.222 29.792 147.891 29.6C147.56 29.408 147.187 29.312 146.771 29.312C146.355 29.312 145.982 29.408 145.651 29.6C145.32 29.792 145.054 30.064 144.851 30.416C144.659 30.768 144.563 31.1947 144.563 31.696C144.563 32.1867 144.659 32.6133 144.851 32.976C145.054 33.328 145.32 33.6 145.651 33.792C145.982 33.984 146.355 34.08 146.771 34.08ZM153.208 36V27.392H155.688V30.752H159.432V27.392H161.928V36H159.432V32.784H155.688V36H153.208ZM168.413 36.128C167.485 36.128 166.659 35.9413 165.933 35.568C165.208 35.184 164.637 34.656 164.221 33.984C163.816 33.312 163.613 32.5493 163.613 31.696C163.613 30.832 163.816 30.0693 164.221 29.408C164.637 28.736 165.208 28.2133 165.933 27.84C166.659 27.456 167.485 27.264 168.413 27.264C169.32 27.264 170.109 27.456 170.781 27.84C171.453 28.2133 171.949 28.752 172.269 29.456L170.333 30.496C170.109 30.0907 169.827 29.792 169.485 29.6C169.155 29.408 168.792 29.312 168.397 29.312C167.971 29.312 167.587 29.408 167.245 29.6C166.904 29.792 166.632 30.064 166.429 30.416C166.237 30.768 166.141 31.1947 166.141 31.696C166.141 32.1973 166.237 32.624 166.429 32.976C166.632 33.328 166.904 33.6 167.245 33.792C167.587 33.984 167.971 34.08 168.397 34.08C168.792 34.08 169.155 33.9893 169.485 33.808C169.827 33.616 170.109 33.312 170.333 32.896L172.269 33.952C171.949 34.6453 171.453 35.184 170.781 35.568C170.109 35.9413 169.32 36.128 168.413 36.128ZM174.829 39.232C174.381 39.232 173.938 39.1627 173.501 39.024C173.064 38.8853 172.706 38.6933 172.429 38.448L173.341 36.672C173.533 36.8427 173.752 36.976 173.997 37.072C174.253 37.168 174.504 37.216 174.749 37.216C175.101 37.216 175.378 37.1307 175.581 36.96C175.794 36.8 175.986 36.528 176.157 36.144L176.605 35.088L176.797 34.816L179.885 27.392H182.285L178.397 36.528C178.12 37.2213 177.8 37.7653 177.437 38.16C177.085 38.5547 176.69 38.832 176.253 38.992C175.826 39.152 175.352 39.232 174.829 39.232ZM176.301 36.336L172.461 27.392H175.037L178.013 34.592L176.301 36.336ZM181.792 35.984L181.92 33.936C181.984 33.9467 182.048 33.9573 182.112 33.968C182.176 33.968 182.234 33.968 182.288 33.968C182.586 33.968 182.821 33.8827 182.992 33.712C183.162 33.5413 183.29 33.312 183.376 33.024C183.461 32.7253 183.52 32.3893 183.552 32.016C183.594 31.6427 183.626 31.2533 183.648 30.848L183.776 27.392H191.136V36H188.64V28.832L189.2 29.44H185.424L185.952 28.8L185.84 30.96C185.808 31.728 185.744 32.432 185.648 33.072C185.562 33.712 185.418 34.2667 185.216 34.736C185.013 35.1947 184.741 35.552 184.4 35.808C184.058 36.0533 183.621 36.176 183.088 36.176C182.896 36.176 182.693 36.16 182.48 36.128C182.266 36.096 182.037 36.048 181.792 35.984ZM198.192 30.144C199.323 30.1547 200.181 30.4107 200.768 30.912C201.365 31.4027 201.664 32.1013 201.664 33.008C201.664 33.9573 201.328 34.6987 200.656 35.232C199.984 35.7547 199.051 36.016 197.856 36.016L193.536 36V27.392H196.016V30.144H198.192ZM197.632 34.24C198.112 34.2507 198.48 34.1493 198.736 33.936C198.992 33.7227 199.12 33.4027 199.12 32.976C199.12 32.5493 198.992 32.2453 198.736 32.064C198.48 31.872 198.112 31.7707 197.632 31.76L196.016 31.744V34.24H197.632ZM204.298 36V28.864L204.858 29.44H201.386V27.392H209.69V29.44H206.218L206.778 28.864V36H204.298ZM216.172 36V34.32L216.012 33.952V30.944C216.012 30.4107 215.847 29.9947 215.516 29.696C215.196 29.3973 214.7 29.248 214.028 29.248C213.57 29.248 213.116 29.3227 212.668 29.472C212.231 29.6107 211.858 29.8027 211.548 30.048L210.652 28.304C211.122 27.9733 211.687 27.7173 212.348 27.536C213.01 27.3547 213.682 27.264 214.364 27.264C215.676 27.264 216.695 27.5733 217.42 28.192C218.146 28.8107 218.508 29.776 218.508 31.088V36H216.172ZM213.548 36.128C212.876 36.128 212.3 36.016 211.82 35.792C211.34 35.5573 210.972 35.2427 210.716 34.848C210.46 34.4533 210.332 34.0107 210.332 33.52C210.332 33.008 210.455 32.56 210.7 32.176C210.956 31.792 211.356 31.4933 211.9 31.28C212.444 31.056 213.154 30.944 214.028 30.944H216.316V32.4H214.3C213.714 32.4 213.308 32.496 213.084 32.688C212.871 32.88 212.764 33.12 212.764 33.408C212.764 33.728 212.887 33.984 213.132 34.176C213.388 34.3573 213.735 34.448 214.172 34.448C214.588 34.448 214.962 34.352 215.292 34.16C215.623 33.9573 215.863 33.664 216.012 33.28L216.396 34.432C216.215 34.9867 215.884 35.408 215.404 35.696C214.924 35.984 214.306 36.128 213.548 36.128ZM220.677 36V27.392H223.157V33.952H226.629V27.392H229.125V36H220.677ZM228.053 37.856V35.968L228.629 36H226.629V33.952H230.373V37.856H228.053ZM231.942 36V27.392H234.422V32.512L238.614 27.392H240.902V36H238.422V30.88L234.246 36H231.942ZM243.302 36V27.392H245.782V30.56H248.31V32.72H245.782V36H243.302ZM251.446 36.128C250.56 36.128 249.771 35.936 249.078 35.552C248.384 35.168 247.84 34.6453 247.446 33.984C247.051 33.312 246.854 32.5493 246.854 31.696C246.854 30.832 247.051 30.0693 247.446 29.408C247.84 28.736 248.384 28.2133 249.078 27.84C249.771 27.456 250.56 27.264 251.446 27.264C252.331 27.264 253.115 27.456 253.798 27.84C254.491 28.2133 255.035 28.736 255.43 29.408C255.824 30.0693 256.022 30.832 256.022 31.696C256.022 32.5493 255.824 33.312 255.43 33.984C255.035 34.656 254.491 35.184 253.798 35.568C253.115 35.9413 252.331 36.128 251.446 36.128ZM251.446 34.08C251.851 34.08 252.208 33.984 252.518 33.792C252.838 33.6 253.088 33.328 253.27 32.976C253.462 32.6133 253.558 32.1867 253.558 31.696C253.558 31.1947 253.462 30.768 253.27 30.416C253.088 30.064 252.838 29.792 252.518 29.6C252.208 29.408 251.851 29.312 251.446 29.312C251.051 29.312 250.688 29.408 250.358 29.6C250.038 29.792 249.782 30.064 249.59 30.416C249.408 30.768 249.318 31.1947 249.318 31.696C249.318 32.1867 249.408 32.6133 249.59 32.976C249.782 33.328 250.038 33.6 250.358 33.792C250.688 33.984 251.051 34.08 251.446 34.08Z" fill="white"/>
</svg>
