<svg width="11" height="11" viewBox="0 0 11 11" fill="none" xmlns="http://www.w3.org/2000/svg">
<path d="M5.656 10.042C4.74133 10.042 3.906 9.82267 3.15 9.384C2.40333 8.94533 1.81067 8.348 1.372 7.592C0.942667 6.836 0.728 6.00533 0.728 5.1C0.728 4.19467 0.942667 3.364 1.372 2.608C1.81067 1.852 2.408 1.25467 3.164 0.816C3.92 0.377333 4.76 0.158 5.684 0.158C6.608 0.158 7.44333 0.372667 8.19 0.802C8.946 1.23133 9.53867 1.824 9.968 2.58C10.3973 3.32667 10.612 4.15733 10.612 5.072C10.612 5.98667 10.3927 6.82667 9.954 7.592C9.51533 8.348 8.918 8.94533 8.162 9.384C7.406 9.82267 6.57067 10.042 5.656 10.042ZM5.656 9.524C6.47733 9.524 7.224 9.328 7.896 8.936C8.568 8.53467 9.1 7.998 9.492 7.326C9.884 6.64467 10.08 5.89333 10.08 5.072C10.08 4.25067 9.88867 3.50867 9.506 2.846C9.12333 2.174 8.596 1.64667 7.924 1.264C7.26133 0.872 6.51467 0.676 5.684 0.676C4.85333 0.676 4.09733 0.872 3.416 1.264C2.744 1.656 2.212 2.19267 1.82 2.874C1.43733 3.546 1.246 4.288 1.246 5.1C1.246 5.912 1.43733 6.65867 1.82 7.34C2.212 8.012 2.744 8.544 3.416 8.936C4.088 9.328 4.83467 9.524 5.656 9.524ZM5.782 8.012C5.23133 8.012 4.732 7.89067 4.284 7.648C3.84533 7.396 3.5 7.05067 3.248 6.612C2.996 6.164 2.87 5.66 2.87 5.1C2.87 4.54 2.996 4.04067 3.248 3.602C3.5 3.154 3.84533 2.80867 4.284 2.566C4.732 2.314 5.23133 2.188 5.782 2.188C6.258 2.188 6.68733 2.286 7.07 2.482C7.462 2.66867 7.77467 2.93 8.008 3.266L7.406 3.714C7.21 3.44333 6.972 3.24267 6.692 3.112C6.412 2.98133 6.104 2.916 5.768 2.916C5.16133 2.916 4.65733 3.11667 4.256 3.518C3.864 3.91933 3.668 4.44667 3.668 5.1C3.668 5.75333 3.864 6.28067 4.256 6.682C4.65733 7.08333 5.16133 7.284 5.768 7.284C6.104 7.284 6.412 7.21867 6.692 7.088C6.972 6.95733 7.21 6.75667 7.406 6.486L8.008 6.92C7.77467 7.26533 7.462 7.536 7.07 7.732C6.68733 7.91867 6.258 8.012 5.782 8.012Z" fill="white" fill-opacity="0.7"/>
</svg>
